<?xml version="1.0" encoding="UTF-8"?>
<svg id="Layer_1" xmlns="http://www.w3.org/2000/svg" version="1.1" viewBox="0 0 1774 304.7">
  <!-- Generator: Adobe Illustrator 29.1.0, SVG Export Plug-In . SVG Version: 2.1.0 Build 142)  -->
  <defs>
    <style>
      .st0 {
        stroke: #ccc;
      }

      .st0, .st1, .st2, .st3 {
        fill: none;
      }

      .st4, .st5, .st1, .st2 {
        stroke: #000;
      }

      .st4, .st5, .st6 {
        fill: #f7c548;
      }

      .st4, .st2, .st3 {
        stroke-miterlimit: 10;
      }

      .st7, .st8, .st9, .st10, .st11, .st12 {
        isolation: isolate;
      }

      .st7, .st9, .st10, .st11, .st12 {
        fill: #212529;
      }

      .st7, .st10, .st11 {
        font-size: 8px;
      }

      .st7, .st12 {
        font-family: Roboto-Bold, Roboto;
        font-weight: 700;
      }

      .st1 {
        stroke-width: .8px;
      }

      .st9, .st11 {
        font-family: Roboto-Light, Roboto;
        font-weight: 300;
      }

      .st9, .st12 {
        font-size: 6px;
      }

      .st2 {
        stroke-width: .5px;
      }

      .st3 {
        stroke: #212529;
        stroke-dasharray: 0 2;
        stroke-linecap: round;
      }

      .st10 {
        font-family: Roboto-Regular, Roboto;
      }
    </style>
  </defs>
  <g class="st8">
    <g class="st8">
      <g class="st8">
        <text class="st9" transform="translate(0 18.9)"><tspan x="0" y="0">Minimum age of eligibility</tspan></text>
      </g>
    </g>
  </g>
  <g class="st8">
    <g class="st8">
      <g class="st8">
        <text class="st12" transform="translate(0 27.3)"><tspan x="0" y="0">25 years old</tspan></text>
      </g>
    </g>
  </g>
  <line class="st1" x1="121.8" y1="35.6" x2="121.8" y2="41.6"/>
  <g class="st8">
    <g class="st8">
      <g class="st8">
        <g class="st8">
          <text class="st9" transform="translate(118.2 28.7)"><tspan x="0" y="0">30</tspan></text>
        </g>
      </g>
    </g>
  </g>
  <line class="st1" x1="235" y1="35.6" x2="235" y2="41.6"/>
  <g class="st8">
    <g class="st8">
      <g class="st8">
        <g class="st8">
          <text class="st9" transform="translate(231.4 28.7)"><tspan x="0" y="0">35</tspan></text>
        </g>
      </g>
    </g>
  </g>
  <line class="st1" x1="348.2" y1="35.6" x2="348.2" y2="41.6"/>
  <g class="st8">
    <g class="st8">
      <g class="st8">
        <g class="st8">
          <text class="st9" transform="translate(344.5 28.7)"><tspan x="0" y="0">40</tspan></text>
        </g>
      </g>
    </g>
  </g>
  <line class="st1" x1="461.3" y1="35.6" x2="461.3" y2="41.6"/>
  <g class="st8">
    <g class="st8">
      <g class="st8">
        <g class="st8">
          <text class="st9" transform="translate(457.7 28.7)"><tspan x="0" y="0">45</tspan></text>
        </g>
      </g>
    </g>
  </g>
  <line class="st1" x1="574.5" y1="35.6" x2="574.5" y2="41.6"/>
  <g class="st8">
    <g class="st8">
      <g class="st8">
        <g class="st8">
          <text class="st9" transform="translate(570.9 28.7)"><tspan x="0" y="0">50</tspan></text>
        </g>
      </g>
    </g>
  </g>
  <line class="st1" x1="800.9" y1="35.6" x2="800.9" y2="41.6"/>
  <g class="st8">
    <g class="st8">
      <g class="st8">
        <g class="st8">
          <text class="st9" transform="translate(797.3 28.7)"><tspan x="0" y="0">60</tspan></text>
        </g>
      </g>
    </g>
  </g>
  <line class="st1" x1="1027.2" y1="35.6" x2="1027.2" y2="41.6"/>
  <g class="st8">
    <g class="st8">
      <g class="st8">
        <g class="st8">
          <text class="st9" transform="translate(1023.6 28.7)"><tspan x="0" y="0">70</tspan></text>
        </g>
      </g>
    </g>
  </g>
  <line class="st1" x1="1140.4" y1="35.6" x2="1140.4" y2="41.6"/>
  <g class="st8">
    <g class="st8">
      <g class="st8">
        <g class="st8">
          <text class="st9" transform="translate(1136.8 28.7)"><tspan x="0" y="0">75</tspan></text>
        </g>
      </g>
    </g>
  </g>
  <line class="st1" x1="1253.6" y1="35.6" x2="1253.6" y2="41.6"/>
  <g class="st8">
    <g class="st8">
      <g class="st8">
        <g class="st8">
          <text class="st9" transform="translate(1250 28.7)"><tspan x="0" y="0">80</tspan></text>
        </g>
      </g>
    </g>
  </g>
  <line class="st1" x1="1366.8" y1="35.6" x2="1366.8" y2="41.6"/>
  <g class="st8">
    <g class="st8">
      <g class="st8">
        <g class="st8">
          <text class="st9" transform="translate(1363.1 28.7)"><tspan x="0" y="0">85</tspan></text>
        </g>
      </g>
    </g>
  </g>
  <line class="st1" x1="1479.9" y1="35.6" x2="1479.9" y2="41.6"/>
  <g class="st8">
    <g class="st8">
      <g class="st8">
        <g class="st8">
          <text class="st9" transform="translate(1476.3 28.7)"><tspan x="0" y="0">90</tspan></text>
        </g>
      </g>
    </g>
  </g>
  <line class="st0" x1="20" y1="180.6" x2="1480" y2="180.6"/>
  <circle class="st6" cx="567" cy="165.2" r="6.5"/>
  <circle class="st6" cx="756.2" cy="202" r="6.5"/>
  <circle class="st6" cx="997.6" cy="161.8" r="6.5"/>
  <circle class="st6" cx="1076.6" cy="202.5" r="6.5"/>
  <circle class="st6" cx="512" cy="235.6" r="6.5"/>
  <circle class="st6" cx="917.6" cy="134.2" r="6.5"/>
  <circle class="st6" cx="250.6" cy="179.2" r="6.5"/>
  <circle class="st6" cx="809.4" cy="159.3" r="6.5"/>
  <circle class="st6" cx="708.2" cy="242.6" r="6.5"/>
  <circle class="st6" cx="853.6" cy="167.8" r="6.5"/>
  <circle class="st6" cx="1118.3" cy="208.9" r="6.5"/>
  <circle class="st6" cx="741.7" cy="199.1" r="6.5"/>
  <circle class="st6" cx="97" cy="161.7" r="6.5"/>
  <circle class="st6" cx="745.8" cy="256.2" r="6.5"/>
  <circle class="st6" cx="646" cy="234" r="6.5"/>
  <circle class="st6" cx="553.4" cy="242.7" r="6.5"/>
  <circle class="st6" cx="649.6" cy="127.2" r="6.5"/>
  <circle class="st6" cx="587.3" cy="222.6" r="6.5"/>
  <circle class="st6" cx="530.7" cy="123.6" r="6.5"/>
  <circle class="st6" cx="727.8" cy="126.8" r="6.5"/>
  <circle class="st6" cx="645.1" cy="193.1" r="6.5"/>
  <circle class="st6" cx="833.7" cy="151" r="6.5"/>
  <circle class="st6" cx="385.1" cy="190" r="6.5"/>
  <circle class="st6" cx="497.7" cy="231.1" r="6.5"/>
  <circle class="st6" cx="491.7" cy="137.4" r="6.5"/>
  <circle class="st6" cx="887.7" cy="136.1" r="6.5"/>
  <circle class="st6" cx="455" cy="152.6" r="6.5"/>
  <circle class="st6" cx="1277.8" cy="180.6" r="6.5"/>
  <circle class="st6" cx="809.1" cy="119" r="6.5"/>
  <ellipse class="st6" cx="789.8" cy="114" rx="6.6" ry="6.5"/>
  <circle class="st6" cx="625.3" cy="176.2" r="6.5"/>
  <circle class="st6" cx="804.4" cy="185.2" r="6.5"/>
  <circle class="st6" cx="418.5" cy="218.8" r="6.5"/>
  <circle class="st6" cx="765.5" cy="149.8" r="6.5"/>
  <circle class="st6" cx="963.3" cy="211.4" r="6.5"/>
  <ellipse class="st6" cx="655.2" cy="115.4" rx="6.6" ry="6.5"/>
  <circle class="st6" cx="634.9" cy="124.6" r="6.5"/>
  <circle class="st6" cx="1167.4" cy="184.8" r="6.5"/>
  <circle class="st6" cx="411" cy="190.7" r="6.5"/>
  <circle class="st6" cx="1094.2" cy="160.2" r="6.5"/>
  <circle class="st6" cx="853.3" cy="123.9" r="6.5"/>
  <circle class="st6" cx="804.4" cy="144.8" r="6.5"/>
  <circle class="st6" cx="702.4" cy="139" r="6.5"/>
  <circle class="st6" cx="1108.9" cy="157.2" r="6.5"/>
  <circle class="st6" cx="610.8" cy="173.4" r="6.5"/>
  <circle class="st6" cx="516.3" cy="202.5" r="6.5"/>
  <circle class="st6" cx="663.8" cy="169.9" r="6.5"/>
  <circle class="st6" cx="1123.1" cy="194.6" r="6.5"/>
  <circle class="st6" cx="982.7" cy="162.7" r="6.5"/>
  <circle class="st6" cx="424.6" cy="168.5" r="6.5"/>
  <circle class="st6" cx="717" cy="167" r="6.5"/>
  <circle class="st6" cx="825.8" cy="243.3" r="6.5"/>
  <circle class="st6" cx="730.8" cy="257.3" r="6.5"/>
  <circle class="st6" cx="865.1" cy="202.2" r="6.5"/>
  <circle class="st6" cx="620.1" cy="121.8" r="6.5"/>
  <circle class="st6" cx="819.1" cy="147.9" r="6.5"/>
  <circle class="st6" cx="561.4" cy="150.5" r="6.5"/>
  <circle class="st6" cx="781.1" cy="248.8" r="6.5"/>
  <circle class="st6" cx="1066.7" cy="191.2" r="6.5"/>
  <ellipse class="st6" cx="725.7" cy="106.7" rx="6.6" ry="6.5"/>
  <circle class="st6" cx="195.1" cy="166.3" r="6.5"/>
  <circle class="st6" cx="1195" cy="188.4" r="6.5"/>
  <circle class="st6" cx="654.5" cy="141.4" r="6.5"/>
  <circle class="st6" cx="1003.2" cy="218.7" r="6.5"/>
  <ellipse class="st6" cx="667.9" cy="105.6" rx="6.6" ry="6.5"/>
  <circle class="st6" cx="84.8" cy="170.4" r="6.5"/>
  <circle class="st6" cx="879.3" cy="236.9" r="6.5"/>
  <circle class="st4" cx="807.1" cy="202.7" r="6.5"/>
  <circle class="st6" cx="546.5" cy="148.6" r="6.5"/>
  <circle class="st6" cx="631.3" cy="231.5" r="6.5"/>
  <circle class="st6" cx="437" cy="143.3" r="6.5"/>
  <circle class="st6" cx="355.3" cy="141.8" r="6.5"/>
  <circle class="st6" cx="389.4" cy="210.2" r="6.5"/>
  <circle class="st6" cx="996.4" cy="146.9" r="6.5"/>
  <circle class="st6" cx="969.9" cy="197.9" r="6.5"/>
  <circle class="st6" cx="424.2" cy="183.5" r="6.5"/>
  <circle class="st6" cx="644.3" cy="153" r="6.5"/>
  <circle class="st6" cx="521.6" cy="135.3" r="6.5"/>
  <circle class="st6" cx="357.6" cy="156.7" r="6.5"/>
  <circle class="st6" cx="476.7" cy="138.4" r="6.5"/>
  <circle class="st6" cx="844.8" cy="243.9" r="6.5"/>
  <circle class="st6" cx="948.4" cy="212.4" r="6.5"/>
  <circle class="st6" cx="862.2" cy="242.4" r="6.5"/>
  <circle class="st6" cx="924.9" cy="174.1" r="6.5"/>
  <circle class="st6" cx="582.1" cy="208.2" r="6.5"/>
  <circle class="st6" cx="828.4" cy="136.2" r="6.5"/>
  <circle class="st6" cx="238.8" cy="188.5" r="6.5"/>
  <circle class="st6" cx="785.4" cy="208.3" r="6.5"/>
  <circle class="st4" cx="529.8" cy="147.8" r="6.5"/>
  <circle class="st6" cx="794.8" cy="156.3" r="6.5"/>
  <circle class="st6" cx="168.1" cy="167" r="6.5"/>
  <circle class="st6" cx="461.6" cy="193.2" r="6.5"/>
  <circle class="st6" cx="484.8" cy="177.7" r="6.5"/>
  <circle class="st6" cx="482.7" cy="231.8" r="6.5"/>
  <circle class="st6" cx="1148.1" cy="202.6" r="6.5"/>
  <circle class="st6" cx="823.7" cy="122" r="6.5"/>
  <circle class="st6" cx="581.5" cy="168" r="6.5"/>
  <circle class="st6" cx="225.5" cy="195.5" r="6.5"/>
  <circle class="st6" cx="376.6" cy="202.3" r="6.5"/>
  <circle class="st6" cx="486.4" cy="203.9" r="6.5"/>
  <circle class="st6" cx="474.7" cy="219.1" r="6.5"/>
  <circle class="st6" cx="990.9" cy="175.2" r="6.5"/>
  <circle class="st6" cx="664.3" cy="130.2" r="6.5"/>
  <ellipse class="st6" cx="683.4" cy="108.9" rx="6.6" ry="6.5"/>
  <circle class="st6" cx="688" cy="161.6" r="6.5"/>
  <circle class="st6" cx="291.1" cy="173" r="6.5"/>
  <ellipse class="st6" cx="760.5" cy="108" rx="6.6" ry="6.5"/>
  <circle class="st6" cx="499.4" cy="177" r="6.5"/>
  <circle class="st6" cx="130.5" cy="191.6" r="6.5"/>
  <circle class="st6" cx="938.4" cy="147" r="6.5"/>
  <circle class="st6" cx="819.1" cy="187.7" r="6.5"/>
  <circle class="st6" cx="675.8" cy="120.5" r="6.5"/>
  <circle class="st6" cx="567.4" cy="205.6" r="6.5"/>
  <circle class="st6" cx="1013.1" cy="187.5" r="6.5"/>
  <circle class="st6" cx="933.4" cy="213.4" r="6.5"/>
  <circle class="st6" cx="592.3" cy="236.7" r="6.5"/>
  <circle class="st6" cx="625" cy="135.9" r="6.5"/>
  <circle class="st6" cx="751.8" cy="242.5" r="6.5"/>
  <circle class="st6" cx="369.6" cy="183.3" r="6.5"/>
  <circle class="st6" cx="658.8" cy="155.8" r="6.5"/>
  <circle class="st6" cx="902.6" cy="135.2" r="6.5"/>
  <circle class="st6" cx="888.4" cy="189.3" r="6.5"/>
  <circle class="st6" cx="1142.6" cy="177.5" r="6.5"/>
  <circle class="st6" cx="961.4" cy="156.7" r="6.5"/>
  <circle class="st6" cx="829.1" cy="176.6" r="6.5"/>
  <circle class="st6" cx="359.2" cy="171.6" r="6.5"/>
  <circle class="st6" cx="1152.9" cy="188.4" r="6.5"/>
  <circle class="st6" cx="784.6" cy="126.8" r="6.5"/>
  <circle class="st6" cx="789.8" cy="181.7" r="6.5"/>
  <circle class="st6" cx="779.7" cy="193.2" r="6.5"/>
  <circle class="st6" cx="1027" cy="156.1" r="6.5"/>
  <circle class="st6" cx="248.5" cy="164.4" r="6.5"/>
  <circle class="st6" cx="411.8" cy="160.7" r="6.5"/>
  <circle class="st6" cx="1037.3" cy="196.8" r="6.5"/>
  <circle class="st6" cx="600.4" cy="144.7" r="6.5"/>
  <circle class="st6" cx="836" cy="206.2" r="6.5"/>
  <circle class="st6" cx="444.5" cy="189.6" r="6.5"/>
  <circle class="st6" cx="878.5" cy="150.9" r="6.5"/>
  <circle class="st6" cx="478.3" cy="191.2" r="6.5"/>
  <circle class="st6" cx="514.8" cy="149" r="6.5"/>
  <circle class="st6" cx="713.9" cy="256.4" r="6.5"/>
  <circle class="st6" cx="669.1" cy="144.3" r="6.5"/>
  <circle class="st6" cx="731.4" cy="169.5" r="6.5"/>
  <circle class="st6" cx="445.6" cy="219.5" r="6.5"/>
  <circle class="st6" cx="668.9" cy="184.7" r="6.5"/>
  <circle class="st6" cx="1113.2" cy="183.4" r="6.5"/>
  <circle class="st6" cx="954.7" cy="172.2" r="6.5"/>
  <circle class="st6" cx="813.6" cy="216.1" r="6.5"/>
  <circle class="st6" cx="852.4" cy="231" r="6.5"/>
  <circle class="st6" cx="21" cy="174.8" r="6.5"/>
  <circle class="st6" cx="72.5" cy="179.1" r="6.5"/>
  <circle class="st6" cx="343.3" cy="151.9" r="6.5"/>
  <circle class="st6" cx="872.9" cy="137.1" r="6.5"/>
  <circle class="st6" cx="518.9" cy="222.3" r="6.5"/>
  <circle class="st6" cx="1012.7" cy="144.5" r="6.5"/>
  <circle class="st6" cx="397.9" cy="197.8" r="6.5"/>
  <circle class="st6" cx="303.1" cy="200.9" r="6.5"/>
  <circle class="st6" cx="1171.6" cy="170" r="6.5"/>
  <circle class="st6" cx="444.8" cy="204.5" r="6.5"/>
  <circle class="st6" cx="565.6" cy="125.1" r="6.5"/>
  <circle class="st6" cx="1322.8" cy="180.6" r="6.5"/>
  <circle class="st5" cx="7.6" cy="177.5" r="6.5"/>
  <circle class="st6" cx="1103.3" cy="172.1" r="6.5"/>
  <circle class="st6" cx="376" cy="217.3" r="6.5"/>
  <circle class="st6" cx="195.7" cy="196.3" r="6.5"/>
  <circle class="st6" cx="501.3" cy="203.2" r="6.5"/>
  <circle class="st6" cx="699.5" cy="230.4" r="6.5"/>
  <circle class="st6" cx="615" cy="147.4" r="6.5"/>
  <circle class="st6" cx="31.8" cy="183.5" r="6.5"/>
  <circle class="st6" cx="939.8" cy="173.1" r="6.5"/>
  <circle class="st6" cx="577.1" cy="194.1" r="6.5"/>
  <circle class="st6" cx="635.7" cy="204.7" r="6.5"/>
  <circle class="st6" cx="766.4" cy="245.7" r="6.5"/>
  <circle class="st6" cx="693.5" cy="127" r="6.5"/>
  <circle class="st6" cx="674" cy="198.8" r="6.5"/>
  <circle class="st6" cx="1184.5" cy="177.7" r="6.5"/>
  <circle class="st6" cx="143" cy="183.4" r="6.5"/>
  <circle class="st6" cx="912" cy="208.5" r="6.5"/>
  <circle class="st6" cx="602" cy="225.3" r="6.5"/>
  <circle class="st6" cx="318.7" cy="203.3" r="6.5"/>
  <circle class="st6" cx="755.2" cy="121.1" r="6.5"/>
  <circle class="st6" cx="639.8" cy="178.9" r="6.5"/>
  <circle class="st6" cx="1049.9" cy="166.5" r="6.5"/>
  <circle class="st6" cx="60.3" cy="187.8" r="6.5"/>
  <circle class="st6" cx="925" cy="200.9" r="6.5"/>
  <circle class="st6" cx="789.8" cy="141.9" r="6.5"/>
  <circle class="st6" cx="1042.5" cy="181.7" r="6.5"/>
  <circle class="st6" cx="1041.4" cy="153.8" r="6.5"/>
  <circle class="st6" cx="788.8" cy="226.2" r="6.5"/>
  <circle class="st6" cx="698.9" cy="254.3" r="6.5"/>
  <circle class="st6" cx="506.2" cy="136.2" r="6.5"/>
  <circle class="st6" cx="799.6" cy="170.4" r="6.5"/>
  <circle class="st6" cx="723" cy="244.6" r="6.5"/>
  <circle class="st6" cx="655.4" cy="222.3" r="6.5"/>
  <circle class="st6" cx="181" cy="159.2" r="6.5"/>
  <circle class="st6" cx="776.4" cy="234.6" r="6.5"/>
  <circle class="st6" cx="535.6" cy="197.6" r="6.5"/>
  <circle class="st6" cx="857.9" cy="138.2" r="6.5"/>
  <circle class="st6" cx="418.2" cy="203.8" r="6.5"/>
  <circle class="st6" cx="463.1" cy="165.3" r="6.5"/>
  <circle class="st6" cx="746.1" cy="172.4" r="6.5"/>
  <circle class="st6" cx="345" cy="166.8" r="6.5"/>
  <circle class="st6" cx="650.1" cy="208.2" r="6.5"/>
  <circle class="st6" cx="761.8" cy="231.4" r="6.5"/>
  <circle class="st6" cx="629.8" cy="150.2" r="6.5"/>
  <circle class="st6" cx="616.7" cy="228" r="6.5"/>
  <circle class="st6" cx="1061.3" cy="205.2" r="6.5"/>
  <circle class="st6" cx="87.6" cy="200.3" r="6.5"/>
  <circle class="st6" cx="868.3" cy="122.8" r="6.5"/>
  <circle class="st6" cx="684.8" cy="227.9" r="6.5"/>
  <circle class="st6" cx="282.1" cy="189.4" r="6.5"/>
  <ellipse class="st6" cx="712.8" cy="114.5" rx="6.6" ry="6.5"/>
  <circle class="st6" cx="169.8" cy="196.9" r="6.5"/>
  <circle class="st6" cx="745.8" cy="132.7" r="6.5"/>
  <circle class="st6" cx="731.9" cy="210.3" r="6.5"/>
  <circle class="st6" cx="44" cy="174.8" r="6.5"/>
  <circle class="st6" cx="1137.8" cy="191.7" r="6.5"/>
  <circle class="st6" cx="903.3" cy="188.4" r="6.5"/>
  <circle class="st6" cx="814.2" cy="173.7" r="6.5"/>
  <circle class="st6" cx="850.5" cy="203.2" r="6.5"/>
  <circle class="st6" cx="596.8" cy="211" r="6.5"/>
  <circle class="st6" cx="750.8" cy="146.8" r="6.5"/>
  <circle class="st6" cx="703" cy="204.1" r="6.5"/>
  <circle class="st6" cx="234.8" cy="174" r="6.5"/>
  <circle class="st6" cx="528.9" cy="175.3" r="6.5"/>
  <circle class="st6" cx="725.6" cy="154.9" r="6.5"/>
  <circle class="st6" cx="448.1" cy="133.1" r="6.5"/>
  <circle class="st6" cx="86.2" cy="185.3" r="6.5"/>
  <circle class="st6" cx="361.1" cy="214" r="6.5"/>
  <circle class="st6" cx="435.4" cy="158.2" r="6.5"/>
  <circle class="st6" cx="611.5" cy="213.7" r="6.5"/>
  <circle class="st6" cx="620" cy="161.6" r="6.5"/>
  <circle class="st6" cx="533.5" cy="225.9" r="6.5"/>
  <circle class="st6" cx="386.4" cy="159.2" r="6.5"/>
  <circle class="st6" cx="747.1" cy="228.3" r="6.5"/>
  <circle class="st6" cx="755.7" cy="161" r="6.5"/>
  <circle class="st6" cx="770" cy="123.9" r="6.5"/>
  <circle class="st6" cx="979" cy="209.9" r="6.5"/>
  <circle class="st6" cx="780.1" cy="153.2" r="6.5"/>
  <circle class="st6" cx="522.7" cy="161.7" r="6.5"/>
  <circle class="st6" cx="901.8" cy="162.4" r="6.5"/>
  <circle class="st4" cx="1180.5" cy="192.1" r="6.5"/>
  <circle class="st4" cx="1123.6" cy="154.3" r="6.5"/>
  <circle class="st6" cx="1005.8" cy="174.4" r="6.5"/>
  <circle class="st6" cx="718.4" cy="230.3" r="6.5"/>
  <circle class="st6" cx="893.5" cy="149.9" r="6.5"/>
  <circle class="st6" cx="670.1" cy="225.1" r="6.5"/>
  <circle class="st6" cx="221.5" cy="181" r="6.5"/>
  <circle class="st6" cx="1031.9" cy="210.8" r="6.5"/>
  <circle class="st6" cx="410.5" cy="141.7" r="6.5"/>
  <circle class="st6" cx="828.3" cy="219" r="6.5"/>
  <circle class="st6" cx="455.1" cy="179.2" r="6.5"/>
  <circle class="st6" cx="1255.4" cy="180.6" r="6.5"/>
  <circle class="st6" cx="362" cy="199.1" r="6.5"/>
  <circle class="st6" cx="690.2" cy="242.1" r="6.5"/>
  <circle class="st6" cx="660.7" cy="236.8" r="6.5"/>
  <circle class="st6" cx="649.3" cy="167.2" r="6.5"/>
  <circle class="st6" cx="1118" cy="169.2" r="6.5"/>
  <circle class="st6" cx="736" cy="144" r="6.5"/>
  <circle class="st6" cx="489.7" cy="218.5" r="6.5"/>
  <circle class="st6" cx="461.8" cy="139.2" r="6.5"/>
  <circle class="st6" cx="798.7" cy="215" r="6.5"/>
  <circle class="st6" cx="981.4" cy="147.8" r="6.5"/>
  <circle class="st6" cx="899.3" cy="217.5" r="6.5"/>
  <circle class="st4" cx="208.2" cy="173.5" r="6.5"/>
  <circle class="st6" cx="678.2" cy="173.1" r="6.5"/>
  <circle class="st6" cx="760.9" cy="216.5" r="6.5"/>
  <circle class="st6" cx="794.2" cy="196.1" r="6.5"/>
  <circle class="st6" cx="595.5" cy="130.5" r="6.5"/>
  <circle class="st6" cx="182.9" cy="204.1" r="6.5"/>
  <circle class="st6" cx="680.6" cy="134.7" r="6.5"/>
  <circle class="st6" cx="698" cy="190" r="6.5"/>
  <circle class="st6" cx="940" cy="199.9" r="6.5"/>
  <circle class="st6" cx="1157.2" cy="173.9" r="6.5"/>
  <circle class="st6" cx="601.6" cy="185.2" r="6.5"/>
  <circle class="st6" cx="321" cy="176.6" r="6.5"/>
  <circle class="st6" cx="154.8" cy="160.2" r="6.5"/>
  <circle class="st6" cx="732.5" cy="225.3" r="6.5"/>
  <circle class="st6" cx="572.7" cy="219.7" r="6.5"/>
  <circle class="st6" cx="58.9" cy="172.8" r="6.5"/>
  <circle class="st6" cx="702.7" cy="163.6" r="6.5"/>
  <circle class="st6" cx="727.3" cy="195.3" r="6.5"/>
  <circle class="st6" cx="116.3" cy="169.8" r="6.5"/>
  <ellipse class="st6" cx="744.3" cy="105.6" rx="6.6" ry="6.5"/>
  <circle class="st6" cx="1073.9" cy="178" r="6.5"/>
  <circle class="st6" cx="537.5" cy="160.6" r="6.5"/>
  <circle class="st6" cx="128.8" cy="161.6" r="6.5"/>
  <circle class="st6" cx="590.7" cy="156.1" r="6.5"/>
  <circle class="st6" cx="234.5" cy="159" r="6.5"/>
  <circle class="st6" cx="17" cy="189.7" r="6.5"/>
  <circle class="st6" cx="843.9" cy="179.2" r="6.5"/>
  <circle class="st6" cx="933.1" cy="186.6" r="6.5"/>
  <circle class="st6" cx="1093.7" cy="200.6" r="6.5"/>
  <circle class="st6" cx="73.9" cy="194" r="6.5"/>
  <circle class="st6" cx="962.9" cy="184.7" r="6.5"/>
  <circle class="st6" cx="977.6" cy="182" r="6.5"/>
  <circle class="st6" cx="818.4" cy="230.3" r="6.5"/>
  <circle class="st6" cx="326.6" cy="190.5" r="6.5"/>
  <circle class="st6" cx="296.8" cy="186.9" r="6.5"/>
  <circle class="st6" cx="775.5" cy="219.5" r="6.5"/>
  <circle class="st6" cx="659.4" cy="196.4" r="6.5"/>
  <circle class="st6" cx="563" cy="231.3" r="6.5"/>
  <circle class="st6" cx="1132.7" cy="166.2" r="6.5"/>
  <circle class="st6" cx="1108.4" cy="197.6" r="6.5"/>
  <circle class="st6" cx="1098.5" cy="186.4" r="6.5"/>
  <circle class="st6" cx="675.4" cy="239.6" r="6.5"/>
  <circle class="st6" cx="932.5" cy="133.2" r="6.5"/>
  <circle class="st6" cx="908.4" cy="149" r="6.5"/>
  <circle class="st6" cx="1027.9" cy="185.2" r="6.5"/>
  <circle class="st6" cx="692.8" cy="175.7" r="6.5"/>
  <circle class="st6" cx="1057.4" cy="179.5" r="6.5"/>
  <circle class="st6" cx="270.2" cy="198.7" r="6.5"/>
  <circle class="st6" cx="156.4" cy="190.2" r="6.5"/>
  <circle class="st6" cx="916.8" cy="161.5" r="6.5"/>
  <circle class="st6" cx="863.3" cy="152.1" r="6.5"/>
  <circle class="st6" cx="1057.1" cy="153.3" r="6.5"/>
  <circle class="st6" cx="605.4" cy="158.8" r="6.5"/>
  <circle class="st6" cx="712.5" cy="192.6" r="6.5"/>
  <circle class="st6" cx="885.4" cy="223.2" r="6.5"/>
  <circle class="st6" cx="437.4" cy="176.4" r="6.5"/>
  <circle class="st6" cx="523.2" cy="189.2" r="6.5"/>
  <circle class="st6" cx="736.5" cy="183.6" r="6.5"/>
  <circle class="st6" cx="799.2" cy="130.2" r="6.5"/>
  <circle class="st6" cx="385.5" cy="175" r="6.5"/>
  <circle class="st6" cx="507.5" cy="162.4" r="6.5"/>
  <circle class="st6" cx="673.6" cy="158.6" r="6.5"/>
  <circle class="st6" cx="276.3" cy="175.6" r="6.5"/>
  <circle class="st6" cx="821.7" cy="202.3" r="6.5"/>
  <circle class="st6" cx="923.4" cy="148" r="6.5"/>
  <circle class="st6" cx="543.3" cy="174.3" r="6.5"/>
  <circle class="st6" cx="1012.4" cy="159.5" r="6.5"/>
  <circle class="st6" cx="775.3" cy="178.9" r="6.5"/>
  <circle class="st6" cx="354.9" cy="185.9" r="6.5"/>
  <circle class="st6" cx="634.6" cy="164.4" r="6.5"/>
  <circle class="st6" cx="405" cy="211" r="6.5"/>
  <circle class="st6" cx="458.1" cy="211.4" r="6.5"/>
  <circle class="st6" cx="838.4" cy="125" r="6.5"/>
  <circle class="st6" cx="750.6" cy="187.2" r="6.5"/>
  <circle class="st6" cx="894.3" cy="235.2" r="6.5"/>
  <circle class="st6" cx="664.9" cy="210.6" r="6.5"/>
  <circle class="st6" cx="955" cy="198.9" r="6.5"/>
  <circle class="st6" cx="998.2" cy="188.6" r="6.5"/>
  <circle class="st6" cx="694.2" cy="216.3" r="6.5"/>
  <circle class="st6" cx="848.4" cy="153.6" r="6.5"/>
  <circle class="st6" cx="918.2" cy="187.6" r="6.5"/>
  <circle class="st6" cx="541" cy="134.7" r="6.5"/>
  <circle class="st6" cx="493.2" cy="190.6" r="6.5"/>
  <circle class="st6" cx="1022.5" cy="199.1" r="6.5"/>
  <ellipse class="st6" cx="775.1" cy="110.4" rx="6.6" ry="6.5"/>
  <circle class="st6" cx="1227.1" cy="185.3" r="6.5"/>
  <circle class="st6" cx="683.4" cy="187.3" r="6.5"/>
  <circle class="st6" cx="182.2" cy="174.1" r="6.5"/>
  <circle class="st6" cx="1345.2" cy="180.6" r="6.5"/>
  <circle class="st6" cx="722.1" cy="181.1" r="6.5"/>
  <circle class="st6" cx="1083.8" cy="189.3" r="6.5"/>
  <circle class="st6" cx="711.1" cy="151.2" r="6.5"/>
  <circle class="st6" cx="398.3" cy="182.8" r="6.5"/>
  <circle class="st6" cx="679.5" cy="213.5" r="6.5"/>
  <circle class="st6" cx="399.6" cy="152" r="6.5"/>
  <circle class="st6" cx="898.3" cy="202.5" r="6.5"/>
  <circle class="st6" cx="953.1" cy="144.2" r="6.5"/>
  <circle class="st6" cx="571" cy="139" r="6.5"/>
  <circle class="st6" cx="948" cy="185.6" r="6.5"/>
  <circle class="st6" cx="398.7" cy="167.8" r="6.5"/>
  <circle class="st6" cx="371.6" cy="151.4" r="6.5"/>
  <circle class="st6" cx="689.5" cy="146.7" r="6.5"/>
  <circle class="st6" cx="470" cy="178.7" r="6.5"/>
  <circle class="st6" cx="867.1" cy="228.2" r="6.5"/>
  <circle class="st6" cx="596.2" cy="170.6" r="6.5"/>
  <circle class="st6" cx="274.1" cy="160.7" r="6.5"/>
  <circle class="st6" cx="1020.6" cy="172.1" r="6.5"/>
  <circle class="st6" cx="508.2" cy="189.9" r="6.5"/>
  <circle class="st6" cx="431.4" cy="196.7" r="6.5"/>
  <circle class="st6" cx="493" cy="163.6" r="6.5"/>
  <circle class="st6" cx="591.7" cy="196.7" r="6.5"/>
  <circle class="st6" cx="157.2" cy="205.1" r="6.5"/>
  <circle class="st6" cx="478" cy="164.4" r="6.5"/>
  <circle class="st6" cx="1064.9" cy="166.1" r="6.5"/>
  <circle class="st6" cx="984.7" cy="195.2" r="6.5"/>
  <circle class="st6" cx="45.4" cy="189.8" r="6.5"/>
  <circle class="st6" cx="1147.3" cy="162.6" r="6.5"/>
  <circle class="st6" cx="98.4" cy="176.6" r="6.5"/>
  <circle class="st6" cx="765.4" cy="190.1" r="6.5"/>
  <circle class="st6" cx="552.5" cy="162.3" r="6.5"/>
  <circle class="st6" cx="770.3" cy="164.5" r="6.5"/>
  <circle class="st6" cx="621.1" cy="202.1" r="6.5"/>
  <circle class="st6" cx="741.1" cy="158.2" r="6.5"/>
  <circle class="st6" cx="557.9" cy="177" r="6.5"/>
  <circle class="st6" cx="169.4" cy="181.9" r="6.5"/>
  <circle class="st6" cx="373.2" cy="166.3" r="6.5"/>
  <circle class="st6" cx="908.2" cy="229.5" r="6.5"/>
  <circle class="st6" cx="895.1" cy="175.9" r="6.5"/>
  <circle class="st6" cx="1127.9" cy="180.4" r="6.5"/>
  <circle class="st6" cx="920.5" cy="220.9" r="6.5"/>
  <circle class="st6" cx="311.7" cy="188.7" r="6.5"/>
  <circle class="st6" cx="1017.1" cy="213.1" r="6.5"/>
  <circle class="st6" cx="654.5" cy="181.6" r="6.5"/>
  <circle class="st6" cx="813.9" cy="133.2" r="6.5"/>
  <circle class="st6" cx="1239" cy="176" r="6.5"/>
  <circle class="st6" cx="155.6" cy="175.2" r="6.5"/>
  <circle class="st4" cx="552.7" cy="202.9" r="6.5"/>
  <circle class="st6" cx="264.5" cy="184.8" r="6.5"/>
  <circle class="st6" cx="580.8" cy="127.7" r="6.5"/>
  <circle class="st4" cx="1435.1" cy="180.6" r="6.5"/>
  <circle class="st6" cx="843.3" cy="219.1" r="6.5"/>
  <circle class="st6" cx="946.7" cy="159.5" r="6.5"/>
  <circle class="st6" cx="587.2" cy="182.5" r="6.5"/>
  <circle class="st6" cx="432.4" cy="226.6" r="6.5"/>
  <circle class="st6" cx="873.2" cy="214.5" r="6.5"/>
  <circle class="st6" cx="504.7" cy="217.8" r="6.5"/>
  <circle class="st6" cx="1088.6" cy="175.1" r="6.5"/>
  <circle class="st6" cx="721.5" cy="140.4" r="6.5"/>
  <circle class="st6" cx="431.6" cy="211.7" r="6.5"/>
  <circle class="st6" cx="335.8" cy="178.7" r="6.5"/>
  <circle class="st6" cx="585.8" cy="141.8" r="6.5"/>
  <circle class="st6" cx="562.4" cy="191.5" r="6.5"/>
  <circle class="st6" cx="576" cy="153.2" r="6.5"/>
  <circle class="st6" cx="746.3" cy="213.2" r="6.5"/>
  <circle class="st6" cx="471.4" cy="204.5" r="6.5"/>
  <circle class="st6" cx="886.9" cy="163.3" r="6.5"/>
  <circle class="st6" cx="555.9" cy="136.5" r="6.5"/>
  <circle class="st6" cx="341.4" cy="192.6" r="6.5"/>
  <circle class="st6" cx="803.5" cy="229.2" r="6.5"/>
  <circle class="st6" cx="740.4" cy="118.7" r="6.5"/>
  <circle class="st6" cx="221.2" cy="166" r="6.5"/>
  <circle class="st6" cx="182.6" cy="189.1" r="6.5"/>
  <circle class="st6" cx="117.1" cy="184.8" r="6.5"/>
  <circle class="st6" cx="469.9" cy="151.8" r="6.5"/>
  <circle class="st6" cx="969.4" cy="169.5" r="6.5"/>
  <circle class="st6" cx="910.1" cy="175" r="6.5"/>
  <circle class="st6" cx="499.9" cy="149.9" r="6.5"/>
  <circle class="st6" cx="760.5" cy="135.5" r="6.5"/>
  <circle class="st6" cx="864.9" cy="177.6" r="6.5"/>
  <circle class="st6" cx="143.8" cy="198.4" r="6.5"/>
  <circle class="st6" cx="855.2" cy="189" r="6.5"/>
  <circle class="st6" cx="129.6" cy="176.6" r="6.5"/>
  <circle class="st6" cx="240.9" cy="203.3" r="6.5"/>
  <ellipse class="st6" cx="697.8" cy="113.2" rx="6.6" ry="6.5"/>
  <circle class="st6" cx="422.7" cy="150.3" r="6.5"/>
  <circle class="st6" cx="514.2" cy="176.1" r="6.5"/>
  <circle class="st6" cx="195.4" cy="181.3" r="6.5"/>
  <circle class="st6" cx="348.6" cy="205.8" r="6.5"/>
  <circle class="st6" cx="528.6" cy="210.9" r="6.5"/>
  <circle class="st6" cx="834.2" cy="190.7" r="6.5"/>
  <circle class="st6" cx="630.7" cy="190.6" r="6.5"/>
  <circle class="st6" cx="572.4" cy="179.9" r="6.5"/>
  <circle class="st6" cx="824.1" cy="162.4" r="6.5"/>
  <circle class="st6" cx="548.2" cy="228.6" r="6.5"/>
  <circle class="st6" cx="1199" cy="173.9" r="6.5"/>
  <circle class="st6" cx="880.3" cy="176.7" r="6.5"/>
  <circle class="st6" cx="71.1" cy="164.1" r="6.5"/>
  <circle class="st6" cx="993.7" cy="207.1" r="6.5"/>
  <circle class="st6" cx="384.8" cy="144.3" r="6.5"/>
  <circle class="st6" cx="640.8" cy="219.9" r="6.5"/>
  <circle class="st6" cx="483.3" cy="124.9" r="6.5"/>
  <circle class="st6" cx="883.3" cy="203.4" r="6.5"/>
  <circle class="st6" cx="650.9" cy="248.1" r="6.5"/>
  <circle class="st6" cx="1035.2" cy="168.7" r="6.5"/>
  <circle class="st6" cx="775.2" cy="138.4" r="6.5"/>
  <circle class="st6" cx="707.4" cy="178.4" r="6.5"/>
  <circle class="st6" cx="873.4" cy="190" r="6.5"/>
  <circle class="st6" cx="838.8" cy="165.1" r="6.5"/>
  <circle class="st6" cx="333.6" cy="205.4" r="6.5"/>
  <circle class="st6" cx="610.3" cy="133.2" r="6.5"/>
  <circle class="st6" cx="835.7" cy="232.1" r="6.5"/>
  <circle class="st6" cx="99.8" cy="191.6" r="6.5"/>
  <circle class="st6" cx="1007.6" cy="201.4" r="6.5"/>
  <circle class="st6" cx="616" cy="187.9" r="6.5"/>
  <circle class="st6" cx="858" cy="216.1" r="6.5"/>
  <circle class="st6" cx="688.4" cy="201.4" r="6.5"/>
  <circle class="st6" cx="708.9" cy="218.8" r="6.5"/>
  <circle class="st6" cx="1300.3" cy="180.6" r="6.5"/>
  <circle class="st6" cx="606.4" cy="199.4" r="6.5"/>
  <circle class="st6" cx="626.2" cy="216.3" r="6.5"/>
  <circle class="st6" cx="665.7" cy="250.9" r="6.5"/>
  <circle class="st6" cx="639.7" cy="138.7" r="6.5"/>
  <circle class="st6" cx="843" cy="139.3" r="6.5"/>
  <circle class="st6" cx="737.1" cy="239.5" r="6.5"/>
  <circle class="st6" cx="543.2" cy="214.5" r="6.5"/>
  <circle class="st6" cx="1079.6" cy="163.1" r="6.5"/>
  <circle class="st6" cx="252.5" cy="193.9" r="6.5"/>
  <circle class="st6" cx="330.2" cy="164.7" r="6.5"/>
  <circle class="st6" cx="717.6" cy="206.6" r="6.5"/>
  <circle class="st6" cx="262.4" cy="170" r="6.5"/>
  <circle class="st6" cx="315" cy="162.8" r="6.5"/>
  <circle class="st6" cx="760.6" cy="175.9" r="6.5"/>
  <circle class="st6" cx="306" cy="174.8" r="6.5"/>
  <circle class="st6" cx="411.4" cy="175.7" r="6.5"/>
  <circle class="st6" cx="1051.9" cy="193.4" r="6.5"/>
  <circle class="st6" cx="547.6" cy="188.8" r="6.5"/>
  <circle class="st6" cx="484.9" cy="150.9" r="6.5"/>
  <circle class="st6" cx="461.4" cy="226" r="6.5"/>
  <circle class="st6" cx="784.9" cy="167.5" r="6.5"/>
  <circle class="st6" cx="871.9" cy="164.3" r="6.5"/>
  <circle class="st6" cx="931.7" cy="160.5" r="6.5"/>
  <circle class="st6" cx="557.9" cy="217.2" r="6.5"/>
  <circle class="st6" cx="448.2" cy="165.9" r="6.5"/>
  <circle class="st6" cx="142.2" cy="168.4" r="6.5"/>
  <circle class="st6" cx="208.6" cy="188.5" r="6.5"/>
  <circle class="st6" cx="770.8" cy="205.2" r="6.5"/>
  <circle class="st6" cx="712.8" cy="128.2" r="6.5"/>
  <circle class="st6" cx="793.4" cy="240.4" r="6.5"/>
  <circle class="st6" cx="1212" cy="181.4" r="6.5"/>
  <circle class="st6" cx="300.1" cy="161" r="6.5"/>
  <g class="st8">
    <g class="st8">
      <g class="st8">
        <text class="st7" transform="translate(1405.9 199.5)"><tspan x="0" y="0">Manuel Po, 88</tspan></text>
      </g>
    </g>
  </g>
  <g class="st8">
    <g class="st8">
      <g class="st8">
        <text class="st11" transform="translate(1405.9 211.5)"><tspan x="0" y="0">Misamis Oriental</tspan></text>
      </g>
    </g>
  </g>
  <g>
    <line class="st3" x1="687.7" y1="35.6" x2="687.7" y2="281.7"/>
    <line class="st3" x1="687.7" y1="283.7" x2="687.7" y2="283.7"/>
  </g>
  <g class="st8">
    <g class="st8">
      <g class="st8">
        <text class="st9" transform="translate(671.7 18.9)"><tspan x="0" y="0">Median age</tspan></text>
      </g>
    </g>
  </g>
  <g class="st8">
    <g class="st8">
      <g class="st8">
        <text class="st12" transform="translate(683.5 26.9)"><tspan x="0" y="0">55</tspan></text>
      </g>
    </g>
  </g>
  <line class="st2" x1="552.7" y1="211.7" x2="552.7" y2="262.9"/>
  <g class="st8">
    <g class="st8">
      <g class="st8">
        <text class="st7" transform="translate(513.6 274.3)"><tspan x="0" y="0">Paolo Duterte, 49</tspan></text>
      </g>
    </g>
  </g>
  <g class="st8">
    <g class="st8">
      <g class="st8">
        <text class="st11" transform="translate(513.6 286.3)"><tspan x="0" y="0">Davao City</tspan></text>
      </g>
    </g>
  </g>
  <line class="st2" x1="208.2" y1="127.1" x2="208.2" y2="163"/>
  <g class="st8">
    <g class="st8">
      <g class="st8">
        <text class="st7" transform="translate(199 112.4)"><tspan x="0" y="0">Ejay Falcon, 34</tspan></text>
      </g>
    </g>
  </g>
  <g class="st8">
    <g class="st8">
      <g class="st8">
        <text class="st11" transform="translate(199 124.4)"><tspan x="0" y="0">Oriental Mindoro</tspan></text>
      </g>
    </g>
  </g>
  <g class="st8">
    <g class="st8">
      <g class="st8">
        <text class="st7" transform="translate(1164.6 210.3)"><tspan x="0" y="0">Gloria Arroyo, 77</tspan></text>
      </g>
    </g>
  </g>
  <g class="st8">
    <g class="st8">
      <g class="st8">
        <text class="st11" transform="translate(1164.6 222.3)"><tspan x="0" y="0">Pampanga</tspan></text>
      </g>
    </g>
  </g>
  <line class="st2" x1="807.1" y1="211.8" x2="807.1" y2="254.6"/>
  <g class="st8">
    <g class="st8">
      <g class="st8">
        <text class="st7" transform="translate(789.8 264.8)"><tspan x="0" y="0">Hilario Davide III, 60</tspan></text>
      </g>
    </g>
  </g>
  <g class="st8">
    <g class="st8">
      <g class="st8">
        <text class="st11" transform="translate(789.8 276.8)"><tspan x="0" y="0">Cebu</tspan></text>
      </g>
    </g>
  </g>
  <line class="st1" x1="14.6" y1="35.6" x2="14.6" y2="41.6"/>
  <g class="st8">
    <g class="st8">
      <g class="st8">
        <text class="st7" transform="translate(1132.7 140.8)"><tspan x="0" y="0">Cynthia Villar, 74</tspan></text>
      </g>
    </g>
  </g>
  <g class="st8">
    <g class="st8">
      <g class="st8">
        <text class="st11" transform="translate(1132.7 152.8)"><tspan x="0" y="0">Las Pinas</tspan></text>
      </g>
    </g>
  </g>
  <line class="st2" x1="529.8" y1="87.5" x2="529.8" y2="138.8"/>
  <g class="st8">
    <g class="st8">
      <g class="st8">
        <text class="st7" transform="translate(508.6 70.7)"><tspan x="0" y="0">Gerville Luistro, 48</tspan></text>
      </g>
    </g>
  </g>
  <g class="st8">
    <g class="st8">
      <g class="st8">
        <text class="st11" transform="translate(508.6 82.7)"><tspan x="0" y="0">Batangas</tspan></text>
      </g>
    </g>
  </g>
  <line class="st2" x1="7.6" y1="186.9" x2="7.6" y2="222.8"/>
  <g class="st8">
    <g class="st8">
      <g class="st8">
        <text class="st7" transform="translate(1.5 233.3)"><tspan x="0" y="0">John Gilbert Agojo, 25</tspan></text>
      </g>
    </g>
  </g>
  <g class="st8">
    <g class="st8">
      <g class="st8">
        <text class="st11" transform="translate(1.5 245.3)"><tspan x="0" y="0">Bulacan</tspan></text>
      </g>
    </g>
  </g>
  <line class="st3" x1="914" y1="35.6" x2="914" y2="287.2"/>
  <g class="st8">
    <g class="st8">
      <g class="st8">
        <text class="st9" transform="translate(893.8 20.7)"><tspan x="0" y="0">Retirement age</tspan></text>
      </g>
    </g>
  </g>
  <g class="st8">
    <g class="st8">
      <g class="st8">
        <text class="st12" transform="translate(910.4 28.7)"><tspan x="0" y="0">65</tspan></text>
      </g>
    </g>
  </g>
  <g class="st8">
    <text class="st10" transform="translate(271 73.1)"><tspan x="0" y="0">Each circle in this chart </tspan></text>
    <text class="st10" transform="translate(271 82.7)"><tspan x="0" y="0">represents a candidate for a </tspan></text>
    <text class="st10" transform="translate(271 92.3)"><tspan x="0" y="0">legislative district in the </tspan></text>
    <text class="st10" transform="translate(271 101.9)"><tspan x="0" y="0">Philippines and their age.</tspan></text>
  </g>
  <g class="st8">
    <text class="st10" transform="translate(964.8 71.6)"><tspan x="0" y="0">Age does not figure prominently on an election debate </tspan></text>
    <text class="st10" transform="translate(964.8 81.2)"><tspan x="0" y="0">in the Philippines, and the Constitution only prescribes </tspan></text>
    <text class="st10" transform="translate(964.8 90.8)"><tspan x="0" y="0">a minimum age requirement for some top positions— </tspan></text>
    <text class="st10" transform="translate(964.8 100.4)"><tspan x="0" y="0">for a member of the House of Representatives, it is </tspan></text>
    <text class="st10" transform="translate(964.8 110)"><tspan x="0" y="0">set at 25 years old.</tspan></text>
  </g>
  <g class="st8">
    <text class="st10" transform="translate(1317.8 71.6)"><tspan x="0" y="0">But political scientists and population experts </tspan></text>
    <text class="st10" transform="translate(1317.8 81.2)"><tspan x="0" y="0">believe Filipino voters put some weight in age </tspan></text>
    <text class="st10" transform="translate(1317.8 90.8)"><tspan x="0" y="0">when deciding who to vote for, whether as a </tspan></text>
    <text class="st10" transform="translate(1317.8 100.4)"><tspan x="0" y="0">barometer of experience or to gauge if someone </tspan></text>
    <text class="st10" transform="translate(1317.8 110)"><tspan x="0" y="0">is healthy enough to govern.</tspan></text>
  </g>
  <g class="st8">
    <text class="st10" transform="translate(269.2 245.4)"><tspan x="0" y="0">As of January this year, 573 candidates have </tspan></text>
    <text class="st10" transform="translate(269.2 255)"><tspan x="0" y="0">filed candidacies for representation of these </tspan></text>
    <text class="st10" transform="translate(269.2 264.6)"><tspan x="0" y="0">districts, 508 of which are in this chart.</tspan></text>
  </g>
</svg>